<?xml version="1.0" encoding="UTF-8"?>
<svg id="a" xmlns="http://www.w3.org/2000/svg" viewBox="0 0 95 75">
  <path d="M94.0103,45.0775l-12.9885-38.4986c-1.2828-3.8024-4.8488-6.3624-8.8618-6.3619l-49.91.0065c-3.9995.0005-7.556,2.5446-8.8483,6.3295L1.0128,42.8363c-.3315.971-.501,1.9899-.5016,3.0159l-.0121,19.5737c-.0032,5.1667,4.1844,9.3569,9.3513,9.3569h75.2994c5.1646,0,9.3512-4.1866,9.3512-9.3512v-17.3649c0-1.0165-.1657-2.0262-.4907-2.9893ZM86.7988,65.3097c0,1.2909-1.0465,2.3374-2.3374,2.3374H9.9767c-1.2909,0-2.3374-1.0465-2.3374-2.3374v-18.1288c0-1.2909,1.0465-2.3374,2.3374-2.3374h74.4847c1.2909,0,2.3374,1.0465,2.3374,2.3374v18.1288Z" style="fill: #999;"/>
  <circle cx="74.6349" cy="56.1889" r="4.7318" style="fill: #999;"/>
  <circle cx="59.1472" cy="56.1889" r="4.7318" style="fill: #999;"/>
</svg>