<?xml version="1.0" encoding="UTF-8"?>
<svg id="a" xmlns="http://www.w3.org/2000/svg" viewBox="0 0 152 78.9141">
  <path d="M132.2996,77.9927v-.0261c10.5477-.2357,19.0305-8.8754,19.0305-19.52,0-10.7928-8.7161-19.5422-19.4678-19.5422-2.9027,0-5.6471.6553-8.1216,1.7987C123.3261,18.6624,105.3419.9198,83.202.9198c-17.8255,0-32.9539,11.5047-38.3939,27.4899-3.0292-2.2755-6.7818-3.6403-10.8622-3.6403-10.0098,0-18.1243,8.1145-18.1243,18.1243,0,1.7331.258,3.4033.7122,4.9905-.2899-.0168-.5769-.0442-.871-.0442-8.2805,0-14.993,6.7503-14.993,15.0772,0,8.2795,6.6381,14.994,14.8536,15.0701v.0054h.1069c.0109,0,.0215.0016.0325.0016s.0215-.0016.0325-.0016" style="fill: #999;"/>
</svg>