<?xml version="1.0" encoding="UTF-8"?>
<svg id="a" xmlns="http://www.w3.org/2000/svg" viewBox="0 0 100 80.7362">
  <path d="M89.8358.1636H10.1642C4.6398.1636.1614,4.6421.1614,10.1664v60.4033c0,5.5244,4.4784,10.0028,10.0028,10.0028h79.6716c5.5244,0,10.0027-4.4784,10.0027-10.0028V10.1664c0-5.5244-4.4784-10.0028-10.0027-10.0028ZM22.8323,9.6103c1.9618,0,3.5522,1.5903,3.5522,3.5521s-1.5904,3.5522-3.5522,3.5522-3.5521-1.5904-3.5521-3.5522,1.5903-3.5521,3.5521-3.5521ZM12.8936,9.6103c1.9618,0,3.5522,1.5903,3.5522,3.5521s-1.5904,3.5522-3.5522,3.5522-3.5521-1.5904-3.5521-3.5522,1.5903-3.5521,3.5521-3.5521ZM89.8293,70.137H9.7312V24.1983h80.0981v45.9387ZM89.8293,16.1619H29.8524v-5.999h59.977v5.999Z" style="fill: #999;"/>
</svg>